# xmcd
#
# Track frame offsets:
#	182
#	53807
#	111125
#	166050
#
# Disc length: 2918 seconds
#
# Revision: 4
# Processed by: cddbd v1.5.2PL0 Copyright (c) Steve Scherf et al.
# Submitted via: VUPlayer 2.49
#
DISCID=280b6404
DTITLE=Thusian - Silmarillion
DYEAR=2000
DGENRE=New Age
TTITLE0=Nenya (Ring of the Water)
TTITLE1=Narya (Ring of the Fire)
TTITLE2=Vilya (Ring of the Air)
TTITLE3=Silmarillion
EXTD=
EXTT0=
EXTT1=
EXTT2=
EXTT3=
PLAYORDER=
